<svg xmlns="http://www.w3.org/2000/svg" width="512" height="512" fill-rule="evenodd" clip-rule="evenodd" image-rendering="optimizeQuality" shape-rendering="geometricPrecision" text-rendering="geometricPrecision" viewBox="0 0 512 512"><defs><linearGradient id="a" x1="67.83" x2="474.19" y1="82.42" y2="389.98" gradientUnits="userSpaceOnUse"><stop offset="0" stop-color="#d31f61"/><stop offset="1" stop-color="#e9568c"/></linearGradient></defs><path fill="url(#a)" d="M256 0c141.39,0 256,114.61 256,256 0,141.39 -114.61,256 -256,256 -141.39,0 -256,-114.61 -256,-256 0,-141.39 114.61,-256 256,-256z"/><path fill="#fff" d="M294.92 247.16c-3.41,-7.87 -6.96,-15.72 -10.74,-23.49 32.3,-13.99 58.26,-32.99 77.6,-57.08 18.87,22.29 30.71,50.6 32.46,81.6 -36.01,-5.9 -69.13,-6.23 -99.32,-1.03zm38.03 124.07c-6.13,-32.9 -15.11,-65.06 -26.85,-96.44 26.23,-3.71 55.1,-2.75 86.68,2.74 -6.1,38.97 -28.34,72.62 -59.83,93.7zm-162.03 -6c27.54,-43.2 62.69,-71.31 106.25,-84.29 12.97,33.84 22.51,68.66 28.58,104.32 -45.38,17.54 -96.36,10 -134.83,-20.03zm-53.36 -112.8c53.81,-0.08 100.24,-6.26 139.13,-18.5 3.26,6.64 6.38,13.31 9.37,20.03 -47.25,14.76 -86.2,45.04 -116.58,90.62 -21.87,-26.25 -32.75,-58.08 -31.92,-92.15zm75.9 -119.99c18.62,24.37 35.11,49.49 49.46,75.26 -34,10.01 -74.55,15.15 -121.46,15.47 9.69,-39.65 36.39,-72.62 72,-90.73zm147.05 13.91c-16.84,21.73 -40.1,38.91 -69.74,51.46 -14.2,-26.02 -30.43,-51.4 -48.77,-76.04 41.52,-10.58 84.45,-1.72 118.51,24.58zm-84.51 -58.17c-92.68,0 -167.82,75.14 -167.82,167.82 0,92.68 75.14,167.82 167.82,167.82 92.68,0 167.82,-75.14 167.82,-167.82 0,-92.68 -75.14,-167.82 -167.82,-167.82z"/></svg>