<svg xmlns="http://www.w3.org/2000/svg" width="24" height="24" fill="none" viewBox="0 0 24 24"><path fill="#A668E3" d="M14.5 13V8C14.5 6.61929 13.3807 5.5 12 5.5C10.6193 5.5 9.5 6.61929 9.5 8V12C9.5 12.3556 9.5 12.5 9.5 13H8C8 12.5 8 12.3453 8 12V8C8 5.79086 9.79086 4 12 4C14.2091 4 16 5.79086 16 8V13H15H14.5Z"/><path fill="#E0C0FF" fill-rule="evenodd" d="M8 10C6.34315 10 5 11.3431 5 13V18C5 19.6569 6.34315 21 8 21H16C17.6569 21 19 19.6569 19 18V13C19 11.3431 17.6569 10 16 10H8ZM12 14C11.4477 14 11 14.4477 11 15V16C11 16.5523 11.4477 17 12 17C12.5523 17 13 16.5523 13 16V15C13 14.4477 12.5523 14 12 14Z" clip-rule="evenodd"/></svg>